<svg xmlns="http://www.w3.org/2000/svg" viewBox="0 0 32 32" width="32" height="32">
  <path fill="#000" d="M16 0C7.16 0 0 7.16 0 16s7.16 16 16 16 16-7.16 16-16S24.84 0 16 0zm0 29c-7.72 0-14-6.28-14-14S8.28 1 16 1s14 6.28 14 14-6.28 14-14 14zM6.25 20.63l-.73-.67c-.56-.51-1.46-.43-1.91.18l-1.52 1.86c-.46.56-.38 1.36.18 1.78l6.89 5.65c.57.46 1.37.38 1.79-.17l1.52-1.86c.45-.56.37-1.37-.18-1.79l-1.47-1.2 3.08-3.76-1.53-1.2-3.04 3.74zm18.71-1.6l-1.52 1.86c-.46.56-.38 1.36.18 1.78l6.89 5.65c.57.46 1.37.38 1.79-.17l1.52-1.86c.45-.56.37-1.37-.18-1.79l-1.47-1.2 3.08-3.76-1.53-1.2-3.04 3.74-.73-.67c-.56-.51-1.46-.43-1.91.18zM16 5.13c-6.5 0-11.75 5.25-11.75 11.75S9.5 28.63 16 28.63 27.75 23.38 27.75 16 22.5 5.13 16 5.13zm0 21.63c-5.6 0-10.13-4.53-10.13-10.13S10.4 6.5 16 6.5s10.13 4.53 10.13 10.13-4.53 10.13-10.13 10.13z"/>
</svg>
